<svg xmlns="http://www.w3.org/2000/svg" viewBox="0 0 24 24" fill="white">
  <path d="M20.52 3.48A11.77 11.77 0 0 0 1.27 15.82L0 21.75l6.06-1.59a11.77 11.77 0 0 0 5.72 1.45h.01a11.76 11.76 0 0 0 8.31-20.13zm-8.3 17.73a9.75 9.75 0 0 1-4.97-1.37l-.36-.21-3.59.94.96-3.5-.23-.37A9.77 9.77 0 1 1 12.22 21.2z"></path>
  <path d="M17.16 14.3c-.27-.13-1.58-.78-1.82-.86-.25-.09-.43-.13-.61.13-.18.26-.7.85-.86 1.03-.16.18-.32.2-.6.07-.27-.13-1.15-.42-2.18-1.34-.8-.71-1.34-1.59-1.5-1.85-.16-.27-.02-.42.11-.55.11-.11.26-.3.39-.45.13-.15.18-.26.27-.43.09-.18.04-.34-.02-.48-.07-.13-.61-1.47-.83-2.02-.22-.53-.45-.46-.61-.47h-.52c-.18 0-.48.07-.73.34-.25.26-.96.94-.96 2.28s.98 2.64 1.12 2.83c.14.18 1.93 2.94 4.69 4.13.65.28 1.15.45 1.54.57.65.21 1.24.18 1.7.11.52-.08 1.58-.65 1.8-1.28.22-.63.22-1.18.15-1.29-.07-.11-.25-.18-.52-.31z"></path>
</svg>
